# xmcd
#
# Track frame offsets:
#	150
#	14455
#	29440
#	40741
#	55617
#	75109
#	91873
#	105532
#	117701
#	130596
#	147605
#	159978
#	173550
#	186349
#	205373
#	220198
#	238635
#	254186
#
# Disc length: 3563 seconds
#
# Revision: 1
# Processed by: cddbd v1.5.1PL0 Copyright (c) Steve Scherf et al.
# Submitted via: audiograbber 1.83.01
#
DISCID=f50de912
DTITLE=Various Artist - Hott Country 114
DYEAR=1900
DGENRE=
TTITLE0=Road Hammers - Eastbound And Down
TTITLE1=Carrie Underwood - Independence Day
TTITLE2=Willie Nelson Feat Toots Hibbert - I'm A Worried Man ( Raggae )
TTITLE3=Catherine Britt Feat Elton John - When We Both Say Goodbye
TTITLE4=Katrina Elam - Strong Anything
TTITLE5=Randy Travis - Angels
TTITLE6=George Canyon - Who Woud You Be
TTITLE7=Matt Jenkins - King Of The Castle
TTITLE8=Warren Brothers - Change
TTITLE9=Jon Randall - I Shouldn't Do This
TTITLE10=Aaron Tippen - Come Friday
TTITLE11=Erika Jo - I Break Things
TTITLE12=Johnny Reid - Gypsy In My Soul
TTITLE13=Dierks Bentley - Come A Little Closer
TTITLE14=Terri Clark - She Didn't Have Time
TTITLE15=Sean Hogan -  A Cowboy's Heart
TTITLE16=Charlie Major - This Is My Sky
TTITLE17=Willie Nelson and Waylon Jennings - Good Heated Woman
EXTD=August 2005
EXTT0=
EXTT1=
EXTT2=
EXTT3=
EXTT4=
EXTT5=
EXTT6=
EXTT7=
EXTT8=
EXTT9=
EXTT10=
EXTT11=
EXTT12=
EXTT13=
EXTT14=
EXTT15=
EXTT16=
EXTT17=
PLAYORDER=
